<svg xmlns="http://www.w3.org/2000/svg" width="543.011" height="98" viewBox="0 0 543.011 98">
  <g id="Group_463" data-name="Group 463" transform="translate(-225.184 -367.596)">
    <g id="Group_461" data-name="Group 461">
      <g id="Group_459" data-name="Group 459">
        <path id="Path_1268" data-name="Path 1268" d="M388.5,409.522H369.3l-3.5,16.1c-.8,4.1.8,5.6,8.3,5.6a43.116,43.116,0,0,0,9.5-1l-.8,14.6a110.29,110.29,0,0,1-19.9,1.9q-10.8,0-15.3-3.9c-2.9-2.7-3.6-7.6-2.1-14.9l4-18.4h-10.3l3.3-15.6h10.3l1.5-7,21.1-6.3-2.8,13.3h19.2Z" fill="#ffffff"/>
        <path id="Path_1269" data-name="Path 1269" d="M394.292,445.325l10.9-51.4h19.8l-1.3,6.1c4.9-5.1,11.3-7.6,19.3-7.6,1.1,0,2.7.1,4.8.2l-3.7,17a43.557,43.557,0,0,0-8.1-.5,36.492,36.492,0,0,0-10.2,1.3c-3.1.9-4.8,2-5.1,3.4l-6.6,31.5Z" fill="#ffffff"/>
        <path id="Path_1270" data-name="Path 1270" d="M469.793,445.325h-19.8l10.9-51.4h19.8Zm15.3-66.2c-.8,3.9-2.1,6.4-4,7.6-1.8,1.2-4.9,1.8-9.2,1.8-4.4,0-7.3-.6-8.6-1.8s-1.5-3.7-.7-7.6c.8-3.5,2.1-5.8,3.8-6.8,1.7-1.1,4.8-1.6,9.3-1.6C484.493,370.721,486.694,372.02,485.094,379.121Z" fill="#ffffff"/>
        <path id="Path_1271" data-name="Path 1271" d="M499.291,373.12h19.8l-4.9,22.9a46.69,46.69,0,0,1,18.3-3.6c7.8,0,13.1,1.9,16,5.8s3.3,10.7,1.2,20.6c-2.2,10.3-6.2,17.6-11.9,21.7s-14.1,6.2-25.2,6.2c-11.7,0-21.1-1.1-28.3-3.2Zm7.4,58.2a42.642,42.642,0,0,0,8.9.9c5,0,8.3-.7,10-2.1,1.7-1.5,3.1-5.1,4.3-10.8,1-4.5,1-7.5-.1-8.9-1-1.5-3.8-2.2-8.5-2.2-5.3,0-10,1.4-10.3,2.9Z" fill="#ffffff"/>
        <path id="Path_1272" data-name="Path 1272" d="M604.993,393.922h19.7l-10.3,48.4a140.761,140.761,0,0,1-34.5,4.4c-17.3,0-24-6.8-20.3-24.5l6-28.3h19.8l-5.8,27.1c-.8,3.7-.7,6.3.4,7.6s3.9,1.9,8.4,1.9q1.051,0,9-.9Z" fill="#ffffff"/>
        <path id="Path_1273" data-name="Path 1273" d="M646.191,445.325h-19.8l10.2-48.4a141.157,141.157,0,0,1,34.6-4.5c17.3,0,24.1,6.9,20.4,24.6l-6,28.3h-19.8l5.7-27.1c.8-3.9.7-6.5-.3-7.6-.9-1.1-3.8-1.7-8.6-1.7a56.45,56.45,0,0,0-8.9.9Z" fill="#ffffff"/>
        <path id="Path_1274" data-name="Path 1274" d="M760.993,429.723a18.6,18.6,0,0,0,1.5,13.2l-20.2,4.7a11.689,11.689,0,0,1-2-5.6,41.975,41.975,0,0,1-20.3,4.7c-15.3,0-21.1-7.7-17-27.7,2.2-10.2,6.1-17.2,11.6-20.9,5.6-3.8,14-5.7,25.3-5.7,11.7,0,21.2,1.1,28.3,3.2Zm-15.4-21.2a42.707,42.707,0,0,0-8.9-.9c-5,0-8.3.7-10,2.2-1.7,1.4-3.1,5-4.3,10.7q-1.5,6.75,0,9c1.1,1.4,3.9,2.1,8.6,2.1,5.3,0,10-1.4,10.3-2.9Z" fill="#ffffff"/>
      </g>
      <g id="Group_460" data-name="Group 460">
        <path id="Path_1275" data-name="Path 1275" d="M388.5,409.522H369.3l-3.5,16.1c-.8,4.1.8,5.6,8.3,5.6a43.116,43.116,0,0,0,9.5-1l-.8,14.6a110.29,110.29,0,0,1-19.9,1.9q-10.8,0-15.3-3.9c-2.9-2.7-3.6-7.6-2.1-14.9l4-18.4h-10.3l3.3-15.6h10.3l1.5-7,21.1-6.3-2.8,13.3h19.2Z" fill="#ffffff"/>
        <path id="Path_1276" data-name="Path 1276" d="M394.292,445.325l10.9-51.4h19.8l-1.3,6.1c4.9-5.1,11.3-7.6,19.3-7.6,1.1,0,2.7.1,4.8.2l-3.7,17a43.557,43.557,0,0,0-8.1-.5,36.492,36.492,0,0,0-10.2,1.3c-3.1.9-4.8,2-5.1,3.4l-6.6,31.5Z" fill="#ffffff"/>
        <path id="Path_1277" data-name="Path 1277" d="M469.793,445.325h-19.8l10.9-51.4h19.8Zm15.3-66.2c-.8,3.9-2.1,6.4-4,7.6-1.8,1.2-4.9,1.8-9.2,1.8-4.4,0-7.3-.6-8.6-1.8s-1.5-3.7-.7-7.6c.8-3.5,2.1-5.8,3.8-6.8,1.7-1.1,4.8-1.6,9.3-1.6C484.493,370.721,486.694,372.02,485.094,379.121Z" fill="#ffffff"/>
        <path id="Path_1278" data-name="Path 1278" d="M499.291,373.12h19.8l-4.9,22.9a46.69,46.69,0,0,1,18.3-3.6c7.8,0,13.1,1.9,16,5.8s3.3,10.7,1.2,20.6c-2.2,10.3-6.2,17.6-11.9,21.7s-14.1,6.2-25.2,6.2c-11.7,0-21.1-1.1-28.3-3.2Zm7.4,58.2a42.642,42.642,0,0,0,8.9.9c5,0,8.3-.7,10-2.1,1.7-1.5,3.1-5.1,4.3-10.8,1-4.5,1-7.5-.1-8.9-1-1.5-3.8-2.2-8.5-2.2-5.3,0-10,1.4-10.3,2.9Z" fill="#ffffff"/>
        <path id="Path_1279" data-name="Path 1279" d="M604.993,393.922h19.7l-10.3,48.4a140.761,140.761,0,0,1-34.5,4.4c-17.3,0-24-6.8-20.3-24.5l6-28.3h19.8l-5.8,27.1c-.8,3.7-.7,6.3.4,7.6s3.9,1.9,8.4,1.9q1.051,0,9-.9Z" fill="#ffffff"/>
        <path id="Path_1280" data-name="Path 1280" d="M646.191,445.325h-19.8l10.2-48.4a141.157,141.157,0,0,1,34.6-4.5c17.3,0,24.1,6.9,20.4,24.6l-6,28.3h-19.8l5.7-27.1c.8-3.9.7-6.5-.3-7.6-.9-1.1-3.8-1.7-8.6-1.7a56.45,56.45,0,0,0-8.9.9Z" fill="#ffffff"/>
        <path id="Path_1281" data-name="Path 1281" d="M760.993,429.723a18.6,18.6,0,0,0,1.5,13.2l-20.2,4.7a11.689,11.689,0,0,1-2-5.6,41.975,41.975,0,0,1-20.3,4.7c-15.3,0-21.1-7.7-17-27.7,2.2-10.2,6.1-17.2,11.6-20.9,5.6-3.8,14-5.7,25.3-5.7,11.7,0,21.2,1.1,28.3,3.2Zm-15.4-21.2a42.707,42.707,0,0,0-8.9-.9c-5,0-8.3.7-10,2.2-1.7,1.4-3.1,5-4.3,10.7q-1.5,6.75,0,9c1.1,1.4,3.9,2.1,8.6,2.1,5.3,0,10-1.4,10.3-2.9Z" fill="#ffffff"/>
      </g>
    </g>
    <g id="Group_462" data-name="Group 462">
      <circle id="Ellipse_214" data-name="Ellipse 214" cx="49" cy="49" r="49" transform="translate(225.184 367.595)" fill="#ffffff"/>
      <path id="Path_1282" data-name="Path 1282" d="M302.631,376.711l-21.105,15.754h35.3A49.221,49.221,0,0,0,302.631,376.711Z" fill="#141C4D"/>
      <path id="Path_1283" data-name="Path 1283" d="M260.064,419.85h63c.071-1.077.12-2.16.12-3.255a49.061,49.061,0,0,0-1.653-12.635H281.35Z" fill="#141C4D"/>
      <path id="Path_1284" data-name="Path 1284" d="M238.787,447.234h73.624a48.877,48.877,0,0,0,8.51-15.89H260.072Z" fill="#141C4D"/>
    </g>
  </g>
</svg>
